M48
; DRILL file {KiCad (5.1.4)-1} date 07.11.2020 13:08:24
; FORMAT={-:-/ absolute / metric / decimal}
; #@! TF.CreationDate,2020-11-07T13:08:24+01:00
; #@! TF.GenerationSoftware,Kicad,Pcbnew,(5.1.4)-1
FMAT,2
METRIC
T1C0.200
T2C0.250
T3C0.300
T4C0.400
T5C0.500
T6C1.000
T7C1.020
T8C3.200
T9C1.000
T10C1.270
T11C3.050
%
G90
G05
T1
X74.119Y-52.901
X74.119Y-130.401
X74.309Y-61.702
X74.309Y-68.001
X74.309Y-139.202
X74.309Y-145.501
X75.109Y-52.012
X75.109Y-129.512
X75.135Y-48.659
X75.135Y-126.159
X75.719Y-55.365
X75.719Y-132.865
X75.973Y-64.966
X75.973Y-142.466
X76.201Y-58.575
X76.201Y-136.075
X77.751Y-63.543
X77.751Y-141.043
X78.081Y-43.858
X78.081Y-121.358
X78.157Y-49.446
X78.157Y-126.946
X78.716Y-58.59
X78.716Y-136.09
X79.021Y-57.879
X79.021Y-135.379
X80.037Y-46.195
X80.037Y-123.695
X80.748Y-49.345
X80.748Y-126.845
X81.154Y-60.292
X81.154Y-137.792
X81.459Y-62.515
X81.459Y-140.015
X81.586Y-66.185
X81.586Y-143.685
X81.891Y-66.972
X81.891Y-144.472
X81.993Y-49.599
X81.993Y-127.099
X82.069Y-45.687
X82.069Y-55.695
X82.069Y-57.651
X82.069Y-123.187
X82.069Y-133.195
X82.069Y-135.151
X82.094Y-70.719
X82.094Y-148.219
X82.145Y-72.281
X82.145Y-149.781
X82.196Y-42.995
X82.196Y-120.495
X82.221Y-60.14
X82.221Y-137.64
X82.297Y-68.014
X82.297Y-145.514
X83.136Y-43.757
X83.136Y-121.257
X83.161Y-81.171
X83.161Y-158.671
X83.288Y-97.427
X83.288Y-174.927
X83.415Y-85.235
X83.415Y-89.299
X83.415Y-93.236
X83.415Y-162.735
X83.415Y-166.799
X83.415Y-170.736
X83.948Y-51.91
X83.948Y-129.41
X84.05Y-52.571
X84.05Y-130.071
X84.177Y-78.123
X84.177Y-78.758
X84.177Y-79.393
X84.177Y-80.028
X84.177Y-80.663
X84.177Y-81.933
X84.177Y-82.568
X84.177Y-83.203
X84.177Y-83.838
X84.177Y-84.473
X84.177Y-86.251
X84.177Y-86.886
X84.177Y-87.521
X84.177Y-88.156
X84.177Y-88.791
X84.177Y-90.188
X84.177Y-90.823
X84.177Y-91.458
X84.177Y-92.093
X84.177Y-94.252
X84.177Y-94.887
X84.177Y-95.522
X84.177Y-96.157
X84.177Y-96.792
X84.177Y-155.623
X84.177Y-156.258
X84.177Y-156.893
X84.177Y-157.528
X84.177Y-158.163
X84.177Y-159.433
X84.177Y-160.068
X84.177Y-160.703
X84.177Y-161.338
X84.177Y-161.973
X84.177Y-163.751
X84.177Y-164.386
X84.177Y-165.021
X84.177Y-165.656
X84.177Y-166.291
X84.177Y-167.688
X84.177Y-168.323
X84.177Y-168.958
X84.177Y-169.593
X84.177Y-171.752
X84.177Y-172.387
X84.177Y-173.022
X84.177Y-173.657
X84.177Y-174.292
X84.609Y-52.926
X84.609Y-130.426
X84.812Y-53.587
X84.812Y-78.123
X84.812Y-78.758
X84.812Y-79.393
X84.812Y-80.028
X84.812Y-80.663
X84.812Y-81.933
X84.812Y-82.568
X84.812Y-83.203
X84.812Y-83.838
X84.812Y-84.473
X84.812Y-86.251
X84.812Y-86.886
X84.812Y-87.521
X84.812Y-88.156
X84.812Y-88.791
X84.812Y-90.188
X84.812Y-90.823
X84.812Y-91.458
X84.812Y-92.093
X84.812Y-92.728
X84.812Y-94.252
X84.812Y-94.887
X84.812Y-95.522
X84.812Y-96.157
X84.812Y-96.792
X84.812Y-131.087
X84.812Y-155.623
X84.812Y-156.258
X84.812Y-156.893
X84.812Y-157.528
X84.812Y-158.163
X84.812Y-159.433
X84.812Y-160.068
X84.812Y-160.703
X84.812Y-161.338
X84.812Y-161.973
X84.812Y-163.751
X84.812Y-164.386
X84.812Y-165.021
X84.812Y-165.656
X84.812Y-166.291
X84.812Y-167.688
X84.812Y-168.323
X84.812Y-168.958
X84.812Y-169.593
X84.812Y-170.228
X84.812Y-171.752
X84.812Y-172.387
X84.812Y-173.022
X84.812Y-173.657
X84.812Y-174.292
X85.447Y-78.123
X85.447Y-78.758
X85.447Y-79.393
X85.447Y-80.028
X85.447Y-80.663
X85.447Y-81.933
X85.447Y-82.568
X85.447Y-83.203
X85.447Y-83.838
X85.447Y-84.473
X85.447Y-86.251
X85.447Y-86.886
X85.447Y-87.521
X85.447Y-88.156
X85.447Y-88.791
X85.447Y-90.188
X85.447Y-90.823
X85.447Y-91.458
X85.447Y-92.093
X85.447Y-92.728
X85.447Y-94.252
X85.447Y-94.887
X85.447Y-95.522
X85.447Y-96.157
X85.447Y-96.792
X85.447Y-155.623
X85.447Y-156.258
X85.447Y-156.893
X85.447Y-157.528
X85.447Y-158.163
X85.447Y-159.433
X85.447Y-160.068
X85.447Y-160.703
X85.447Y-161.338
X85.447Y-161.973
X85.447Y-163.751
X85.447Y-164.386
X85.447Y-165.021
X85.447Y-165.656
X85.447Y-166.291
X85.447Y-167.688
X85.447Y-168.323
X85.447Y-168.958
X85.447Y-169.593
X85.447Y-170.228
X85.447Y-171.752
X85.447Y-172.387
X85.447Y-173.022
X85.447Y-173.657
X85.447Y-174.292
X85.46Y-55.923
X85.46Y-133.423
X85.523Y-53.637
X85.523Y-131.137
X85.777Y-54.247
X85.777Y-131.747
X86.082Y-78.123
X86.082Y-78.758
X86.082Y-79.393
X86.082Y-80.028
X86.082Y-80.663
X86.082Y-81.933
X86.082Y-82.568
X86.082Y-83.203
X86.082Y-83.838
X86.082Y-84.473
X86.082Y-86.251
X86.082Y-86.886
X86.082Y-87.521
X86.082Y-88.156
X86.082Y-88.791
X86.082Y-90.188
X86.082Y-90.823
X86.082Y-91.458
X86.082Y-92.093
X86.082Y-92.728
X86.082Y-94.252
X86.082Y-94.887
X86.082Y-95.522
X86.082Y-96.157
X86.082Y-96.792
X86.082Y-155.623
X86.082Y-156.258
X86.082Y-156.893
X86.082Y-157.528
X86.082Y-158.163
X86.082Y-159.433
X86.082Y-160.068
X86.082Y-160.703
X86.082Y-161.338
X86.082Y-161.973
X86.082Y-163.751
X86.082Y-164.386
X86.082Y-165.021
X86.082Y-165.656
X86.082Y-166.291
X86.082Y-167.688
X86.082Y-168.323
X86.082Y-168.958
X86.082Y-169.593
X86.082Y-170.228
X86.082Y-171.752
X86.082Y-172.387
X86.082Y-173.022
X86.082Y-173.657
X86.082Y-174.292
X86.209Y-76.98
X86.209Y-154.48
X86.336Y-48.253
X86.336Y-125.753
X86.717Y-72.218
X86.717Y-149.718
X87.098Y-48.202
X87.098Y-125.702
X87.149Y-43.833
X87.149Y-121.333
X87.403Y-41.268
X87.403Y-118.768
X87.987Y-43.808
X87.987Y-121.308
X88.52Y-48.303
X88.52Y-125.803
X89.181Y-48.303
X89.181Y-125.803
X89.46Y-39.235
X89.46Y-116.736
X90.273Y-59.454
X90.273Y-62.502
X90.273Y-65.55
X90.273Y-68.598
X90.273Y-71.036
X90.273Y-136.954
X90.273Y-140.002
X90.273Y-143.05
X90.273Y-146.098
X90.273Y-148.536
X90.451Y-48.1
X90.451Y-125.6
X90.946Y-43.668
X90.946Y-121.168
X91.01Y-57.142
X91.01Y-134.642
X91.035Y-45.179
X91.035Y-122.679
X91.111Y-48.202
X91.111Y-125.702
X91.619Y-55.466
X91.619Y-132.966
X92.026Y-39.998
X92.026Y-117.498
X92.14Y-98.405
X92.14Y-175.905
X92.584Y-48.303
X92.584Y-125.803
X92.584Y-55.619
X92.584Y-58.666
X92.584Y-133.119
X92.584Y-136.166
X93.245Y-48.303
X93.245Y-125.803
X93.27Y-60.978
X93.27Y-138.478
X93.321Y-64.026
X93.321Y-70.122
X93.321Y-141.526
X93.321Y-147.622
X93.372Y-67.074
X93.372Y-144.574
X93.473Y-45.967
X93.473Y-123.467
X93.499Y-45.179
X93.499Y-122.679
X93.55Y-43.528
X93.55Y-121.028
X94.261Y-53.485
X94.261Y-130.985
X94.388Y-43.681
X94.388Y-121.181
X94.667Y-45.306
X94.667Y-122.806
X94.82Y-48.303
X94.82Y-125.803
X95.531Y-48.354
X95.531Y-125.854
X95.577Y-40.546
X95.577Y-118.046
X95.734Y-51.555
X95.734Y-129.055
X95.95Y-98.43
X95.95Y-175.93
X96.064Y-46.348
X96.064Y-123.848
X96.496Y-43.579
X96.496Y-121.079
X96.547Y-57.93
X96.547Y-64.026
X96.547Y-135.43
X96.547Y-141.526
X96.557Y-65.657
X96.557Y-143.157
X96.623Y-60.978
X96.623Y-138.478
X96.75Y-50.539
X96.75Y-128.039
X96.801Y-48.303
X96.801Y-125.803
X96.902Y-55.466
X96.902Y-132.966
X96.953Y-70.122
X96.953Y-147.622
X97.207Y-43.706
X97.207Y-121.206
X97.512Y-72.941
X97.512Y-150.441
X97.868Y-50.97
X97.868Y-128.47
X98.071Y-73.5
X98.071Y-151.0
X98.249Y-45.23
X98.249Y-122.73
X98.264Y-42.065
X98.264Y-119.565
X98.299Y-49.942
X98.299Y-127.442
X98.884Y-42.365
X98.884Y-119.865
X99.366Y-49.904
X99.366Y-127.404
X99.392Y-73.83
X99.392Y-151.33
X99.493Y-73.17
X99.493Y-150.67
X99.9Y-49.065
X99.9Y-126.565
X100.128Y-47.567
X100.128Y-125.067
X100.306Y-43.884
X100.306Y-121.384
X100.458Y-50.081
X100.458Y-127.581
X100.946Y-43.33
X100.946Y-120.83
X101.165Y-45.225
X101.165Y-122.725
X101.271Y-55.06
X101.271Y-132.56
X101.83Y-49.777
X101.83Y-127.277
X101.932Y-45.408
X101.932Y-122.908
X102.033Y-53.129
X102.033Y-130.629
X102.452Y-60.394
X102.452Y-137.894
X102.795Y-43.782
X102.795Y-121.282
X103.405Y-51.402
X103.405Y-128.902
X103.76Y-45.662
X103.76Y-123.162
X104.202Y-47.242
X104.202Y-124.742
X104.573Y-54.095
X104.573Y-131.595
X104.726Y-56.99
X104.726Y-134.49
X105.122Y-94.145
X105.122Y-171.645
X105.335Y-43.833
X105.335Y-121.333
X105.691Y-53.688
X105.691Y-131.188
X106.158Y-45.169
X106.158Y-122.669
X106.824Y-60.358
X106.824Y-137.858
X107.901Y-49.355
X107.901Y-126.855
X108.739Y-60.089
X108.739Y-137.589
X134.119Y-52.901
X134.119Y-130.401
X134.309Y-61.702
X134.309Y-68.001
X134.309Y-139.202
X134.309Y-145.501
X135.109Y-52.012
X135.109Y-129.512
X135.135Y-48.659
X135.135Y-126.159
X135.719Y-55.365
X135.719Y-132.865
X135.973Y-64.966
X135.973Y-142.466
X136.201Y-58.575
X136.201Y-136.075
X137.751Y-63.543
X137.751Y-141.043
X138.081Y-43.858
X138.081Y-121.358
X138.157Y-49.446
X138.157Y-126.946
X138.716Y-58.59
X138.716Y-136.09
X139.021Y-57.879
X139.021Y-135.379
X140.037Y-46.195
X140.037Y-123.695
X140.748Y-49.345
X140.748Y-126.845
X141.154Y-60.292
X141.154Y-137.792
X141.459Y-62.515
X141.459Y-140.015
X141.586Y-66.185
X141.586Y-143.685
X141.891Y-66.972
X141.891Y-144.472
X141.993Y-49.599
X141.993Y-127.099
X142.069Y-45.687
X142.069Y-55.695
X142.069Y-57.651
X142.069Y-123.187
X142.069Y-133.195
X142.069Y-135.151
X142.094Y-70.719
X142.094Y-148.219
X142.145Y-72.281
X142.145Y-149.781
X142.196Y-42.995
X142.196Y-120.495
X142.221Y-60.14
X142.221Y-137.64
X142.297Y-68.014
X142.297Y-145.514
X143.136Y-43.757
X143.136Y-121.257
X143.161Y-81.171
X143.161Y-158.671
X143.288Y-97.427
X143.288Y-174.927
X143.415Y-85.235
X143.415Y-89.299
X143.415Y-93.236
X143.415Y-162.735
X143.415Y-166.799
X143.415Y-170.736
X143.948Y-51.91
X143.948Y-129.41
X144.05Y-52.571
X144.05Y-130.071
X144.177Y-78.123
X144.177Y-78.758
X144.177Y-79.393
X144.177Y-80.028
X144.177Y-80.663
X144.177Y-81.933
X144.177Y-82.568
X144.177Y-83.203
X144.177Y-83.838
X144.177Y-84.473
X144.177Y-86.251
X144.177Y-86.886
X144.177Y-87.521
X144.177Y-88.156
X144.177Y-88.791
X144.177Y-90.188
X144.177Y-90.823
X144.177Y-91.458
X144.177Y-92.093
X144.177Y-94.252
X144.177Y-94.887
X144.177Y-95.522
X144.177Y-96.157
X144.177Y-96.792
X144.177Y-155.623
X144.177Y-156.258
X144.177Y-156.893
X144.177Y-157.528
X144.177Y-158.163
X144.177Y-159.433
X144.177Y-160.068
X144.177Y-160.703
X144.177Y-161.338
X144.177Y-161.973
X144.177Y-163.751
X144.177Y-164.386
X144.177Y-165.021
X144.177Y-165.656
X144.177Y-166.291
X144.177Y-167.688
X144.177Y-168.323
X144.177Y-168.958
X144.177Y-169.593
X144.177Y-171.752
X144.177Y-172.387
X144.177Y-173.022
X144.177Y-173.657
X144.177Y-174.292
X144.609Y-52.926
X144.609Y-130.426
X144.812Y-53.587
X144.812Y-78.123
X144.812Y-78.758
X144.812Y-79.393
X144.812Y-80.028
X144.812Y-80.663
X144.812Y-81.933
X144.812Y-82.568
X144.812Y-83.203
X144.812Y-83.838
X144.812Y-84.473
X144.812Y-86.251
X144.812Y-86.886
X144.812Y-87.521
X144.812Y-88.156
X144.812Y-88.791
X144.812Y-90.188
X144.812Y-90.823
X144.812Y-91.458
X144.812Y-92.093
X144.812Y-92.728
X144.812Y-94.252
X144.812Y-94.887
X144.812Y-95.522
X144.812Y-96.157
X144.812Y-96.792
X144.812Y-131.087
X144.812Y-155.623
X144.812Y-156.258
X144.812Y-156.893
X144.812Y-157.528
X144.812Y-158.163
X144.812Y-159.433
X144.812Y-160.068
X144.812Y-160.703
X144.812Y-161.338
X144.812Y-161.973
X144.812Y-163.751
X144.812Y-164.386
X144.812Y-165.021
X144.812Y-165.656
X144.812Y-166.291
X144.812Y-167.688
X144.812Y-168.323
X144.812Y-168.958
X144.812Y-169.593
X144.812Y-170.228
X144.812Y-171.752
X144.812Y-172.387
X144.812Y-173.022
X144.812Y-173.657
X144.812Y-174.292
X145.447Y-78.123
X145.447Y-78.758
X145.447Y-79.393
X145.447Y-80.028
X145.447Y-80.663
X145.447Y-81.933
X145.447Y-82.568
X145.447Y-83.203
X145.447Y-83.838
X145.447Y-84.473
X145.447Y-86.251
X145.447Y-86.886
X145.447Y-87.521
X145.447Y-88.156
X145.447Y-88.791
X145.447Y-90.188
X145.447Y-90.823
X145.447Y-91.458
X145.447Y-92.093
X145.447Y-92.728
X145.447Y-94.252
X145.447Y-94.887
X145.447Y-95.522
X145.447Y-96.157
X145.447Y-96.792
X145.447Y-155.623
X145.447Y-156.258
X145.447Y-156.893
X145.447Y-157.528
X145.447Y-158.163
X145.447Y-159.433
X145.447Y-160.068
X145.447Y-160.703
X145.447Y-161.338
X145.447Y-161.973
X145.447Y-163.751
X145.447Y-164.386
X145.447Y-165.021
X145.447Y-165.656
X145.447Y-166.291
X145.447Y-167.688
X145.447Y-168.323
X145.447Y-168.958
X145.447Y-169.593
X145.447Y-170.228
X145.447Y-171.752
X145.447Y-172.387
X145.447Y-173.022
X145.447Y-173.657
X145.447Y-174.292
X145.46Y-55.923
X145.46Y-133.423
X145.523Y-53.637
X145.523Y-131.137
X145.777Y-54.247
X145.777Y-131.747
X146.082Y-78.123
X146.082Y-78.758
X146.082Y-79.393
X146.082Y-80.028
X146.082Y-80.663
X146.082Y-81.933
X146.082Y-82.568
X146.082Y-83.203
X146.082Y-83.838
X146.082Y-84.473
X146.082Y-86.251
X146.082Y-86.886
X146.082Y-87.521
X146.082Y-88.156
X146.082Y-88.791
X146.082Y-90.188
X146.082Y-90.823
X146.082Y-91.458
X146.082Y-92.093
X146.082Y-92.728
X146.082Y-94.252
X146.082Y-94.887
X146.082Y-95.522
X146.082Y-96.157
X146.082Y-96.792
X146.082Y-155.623
X146.082Y-156.258
X146.082Y-156.893
X146.082Y-157.528
X146.082Y-158.163
X146.082Y-159.433
X146.082Y-160.068
X146.082Y-160.703
X146.082Y-161.338
X146.082Y-161.973
X146.082Y-163.751
X146.082Y-164.386
X146.082Y-165.021
X146.082Y-165.656
X146.082Y-166.291
X146.082Y-167.688
X146.082Y-168.323
X146.082Y-168.958
X146.082Y-169.593
X146.082Y-170.228
X146.082Y-171.752
X146.082Y-172.387
X146.082Y-173.022
X146.082Y-173.657
X146.082Y-174.292
X146.209Y-76.98
X146.209Y-154.48
X146.336Y-48.253
X146.336Y-125.753
X146.717Y-72.218
X146.717Y-149.718
X147.098Y-48.202
X147.098Y-125.702
X147.149Y-43.833
X147.149Y-121.333
X147.403Y-41.268
X147.403Y-118.768
X147.987Y-43.808
X147.987Y-121.308
X148.52Y-48.303
X148.52Y-125.803
X149.181Y-48.303
X149.181Y-125.803
X149.46Y-39.235
X149.46Y-116.736
X150.273Y-59.454
X150.273Y-62.502
X150.273Y-65.55
X150.273Y-68.598
X150.273Y-71.036
X150.273Y-136.954
X150.273Y-140.002
X150.273Y-143.05
X150.273Y-146.098
X150.273Y-148.536
X150.451Y-48.1
X150.451Y-125.6
X150.946Y-43.668
X150.946Y-121.168
X151.01Y-57.142
X151.01Y-134.642
X151.035Y-45.179
X151.035Y-122.679
X151.111Y-48.202
X151.111Y-125.702
X151.619Y-55.466
X151.619Y-132.966
X152.026Y-39.998
X152.026Y-117.498
X152.14Y-98.405
X152.14Y-175.905
X152.584Y-48.303
X152.584Y-125.803
X152.584Y-55.619
X152.584Y-58.666
X152.584Y-133.119
X152.584Y-136.166
X153.245Y-48.303
X153.245Y-125.803
X153.27Y-60.978
X153.27Y-138.478
X153.321Y-64.026
X153.321Y-70.122
X153.321Y-141.526
X153.321Y-147.622
X153.372Y-67.074
X153.372Y-144.574
X153.473Y-45.967
X153.473Y-123.467
X153.499Y-45.179
X153.499Y-122.679
X153.55Y-43.528
X153.55Y-121.028
X154.261Y-53.485
X154.261Y-130.985
X154.388Y-43.681
X154.388Y-121.181
X154.667Y-45.306
X154.667Y-122.806
X154.82Y-48.303
X154.82Y-125.803
X155.531Y-48.354
X155.531Y-125.854
X155.577Y-40.546
X155.577Y-118.046
X155.734Y-51.555
X155.734Y-129.055
X155.95Y-98.43
X155.95Y-175.93
X156.064Y-46.348
X156.064Y-123.848
X156.496Y-43.579
X156.496Y-121.079
X156.547Y-57.93
X156.547Y-64.026
X156.547Y-135.43
X156.547Y-141.526
X156.557Y-65.657
X156.557Y-143.157
X156.623Y-60.978
X156.623Y-138.478
X156.75Y-50.539
X156.75Y-128.039
X156.801Y-48.303
X156.801Y-125.803
X156.902Y-55.466
X156.902Y-132.966
X156.953Y-70.122
X156.953Y-147.622
X157.207Y-43.706
X157.207Y-121.206
X157.512Y-72.941
X157.512Y-150.441
X157.868Y-50.97
X157.868Y-128.47
X158.071Y-73.5
X158.071Y-151.0
X158.249Y-45.23
X158.249Y-122.73
X158.264Y-42.065
X158.264Y-119.565
X158.299Y-49.942
X158.299Y-127.442
X158.884Y-42.365
X158.884Y-119.865
X159.366Y-49.904
X159.366Y-127.404
X159.392Y-73.83
X159.392Y-151.33
X159.493Y-73.17
X159.493Y-150.67
X159.9Y-49.065
X159.9Y-126.565
X160.128Y-47.567
X160.128Y-125.067
X160.306Y-43.884
X160.306Y-121.384
X160.458Y-50.081
X160.458Y-127.581
X160.946Y-43.33
X160.946Y-120.83
X161.165Y-45.225
X161.165Y-122.725
X161.271Y-55.06
X161.271Y-132.56
X161.83Y-49.777
X161.83Y-127.277
X161.932Y-45.408
X161.932Y-122.908
X162.033Y-53.129
X162.033Y-130.629
X162.452Y-60.394
X162.452Y-137.894
X162.795Y-43.782
X162.795Y-121.282
X163.405Y-51.402
X163.405Y-128.902
X163.76Y-45.662
X163.76Y-123.162
X164.202Y-47.242
X164.202Y-124.742
X164.573Y-54.095
X164.573Y-131.595
X164.726Y-56.99
X164.726Y-134.49
X165.122Y-94.145
X165.122Y-171.645
X165.335Y-43.833
X165.335Y-121.333
X165.691Y-53.688
X165.691Y-131.188
X166.158Y-45.169
X166.158Y-122.669
X166.824Y-60.358
X166.824Y-137.858
X167.901Y-49.355
X167.901Y-126.855
X168.739Y-60.089
X168.739Y-137.589
X194.119Y-52.901
X194.119Y-130.401
X194.309Y-61.702
X194.309Y-68.001
X194.309Y-139.202
X194.309Y-145.501
X195.109Y-52.012
X195.109Y-129.512
X195.135Y-48.659
X195.135Y-126.159
X195.719Y-55.365
X195.719Y-132.865
X195.973Y-64.966
X195.973Y-142.466
X196.201Y-58.575
X196.201Y-136.075
X197.751Y-63.543
X197.751Y-141.043
X198.081Y-43.858
X198.081Y-121.358
X198.157Y-49.446
X198.157Y-126.946
X198.716Y-58.59
X198.716Y-136.09
X199.021Y-57.879
X199.021Y-135.379
X200.037Y-46.195
X200.037Y-123.695
X200.748Y-49.345
X200.748Y-126.845
X201.154Y-60.292
X201.154Y-137.792
X201.459Y-62.515
X201.459Y-140.015
X201.586Y-66.185
X201.586Y-143.685
X201.891Y-66.972
X201.891Y-144.472
X201.993Y-49.599
X201.993Y-127.099
X202.069Y-45.687
X202.069Y-55.695
X202.069Y-57.651
X202.069Y-123.187
X202.069Y-133.195
X202.069Y-135.151
X202.094Y-70.719
X202.094Y-148.219
X202.145Y-72.281
X202.145Y-149.781
X202.196Y-42.995
X202.196Y-120.495
X202.221Y-60.14
X202.221Y-137.64
X202.297Y-68.014
X202.297Y-145.514
X203.136Y-43.757
X203.136Y-121.257
X203.161Y-81.171
X203.161Y-158.671
X203.288Y-97.427
X203.288Y-174.927
X203.415Y-85.235
X203.415Y-89.299
X203.415Y-93.236
X203.415Y-162.735
X203.415Y-166.799
X203.415Y-170.736
X203.948Y-51.91
X203.948Y-129.41
X204.05Y-52.571
X204.05Y-130.071
X204.177Y-78.123
X204.177Y-78.758
X204.177Y-79.393
X204.177Y-80.028
X204.177Y-80.663
X204.177Y-81.933
X204.177Y-82.568
X204.177Y-83.203
X204.177Y-83.838
X204.177Y-84.473
X204.177Y-86.251
X204.177Y-86.886
X204.177Y-87.521
X204.177Y-88.156
X204.177Y-88.791
X204.177Y-90.188
X204.177Y-90.823
X204.177Y-91.458
X204.177Y-92.093
X204.177Y-94.252
X204.177Y-94.887
X204.177Y-95.522
X204.177Y-96.157
X204.177Y-96.792
X204.177Y-155.623
X204.177Y-156.258
X204.177Y-156.893
X204.177Y-157.528
X204.177Y-158.163
X204.177Y-159.433
X204.177Y-160.068
X204.177Y-160.703
X204.177Y-161.338
X204.177Y-161.973
X204.177Y-163.751
X204.177Y-164.386
X204.177Y-165.021
X204.177Y-165.656
X204.177Y-166.291
X204.177Y-167.688
X204.177Y-168.323
X204.177Y-168.958
X204.177Y-169.593
X204.177Y-171.752
X204.177Y-172.387
X204.177Y-173.022
X204.177Y-173.657
X204.177Y-174.292
X204.609Y-52.926
X204.609Y-130.426
X204.812Y-53.587
X204.812Y-78.123
X204.812Y-78.758
X204.812Y-79.393
X204.812Y-80.028
X204.812Y-80.663
X204.812Y-81.933
X204.812Y-82.568
X204.812Y-83.203
X204.812Y-83.838
X204.812Y-84.473
X204.812Y-86.251
X204.812Y-86.886
X204.812Y-87.521
X204.812Y-88.156
X204.812Y-88.791
X204.812Y-90.188
X204.812Y-90.823
X204.812Y-91.458
X204.812Y-92.093
X204.812Y-92.728
X204.812Y-94.252
X204.812Y-94.887
X204.812Y-95.522
X204.812Y-96.157
X204.812Y-96.792
X204.812Y-131.087
X204.812Y-155.623
X204.812Y-156.258
X204.812Y-156.893
X204.812Y-157.528
X204.812Y-158.163
X204.812Y-159.433
X204.812Y-160.068
X204.812Y-160.703
X204.812Y-161.338
X204.812Y-161.973
X204.812Y-163.751
X204.812Y-164.386
X204.812Y-165.021
X204.812Y-165.656
X204.812Y-166.291
X204.812Y-167.688
X204.812Y-168.323
X204.812Y-168.958
X204.812Y-169.593
X204.812Y-170.228
X204.812Y-171.752
X204.812Y-172.387
X204.812Y-173.022
X204.812Y-173.657
X204.812Y-174.292
X205.447Y-78.123
X205.447Y-78.758
X205.447Y-79.393
X205.447Y-80.028
X205.447Y-80.663
X205.447Y-81.933
X205.447Y-82.568
X205.447Y-83.203
X205.447Y-83.838
X205.447Y-84.473
X205.447Y-86.251
X205.447Y-86.886
X205.447Y-87.521
X205.447Y-88.156
X205.447Y-88.791
X205.447Y-90.188
X205.447Y-90.823
X205.447Y-91.458
X205.447Y-92.093
X205.447Y-92.728
X205.447Y-94.252
X205.447Y-94.887
X205.447Y-95.522
X205.447Y-96.157
X205.447Y-96.792
X205.447Y-155.623
X205.447Y-156.258
X205.447Y-156.893
X205.447Y-157.528
X205.447Y-158.163
X205.447Y-159.433
X205.447Y-160.068
X205.447Y-160.703
X205.447Y-161.338
X205.447Y-161.973
X205.447Y-163.751
X205.447Y-164.386
X205.447Y-165.021
X205.447Y-165.656
X205.447Y-166.291
X205.447Y-167.688
X205.447Y-168.323
X205.447Y-168.958
X205.447Y-169.593
X205.447Y-170.228
X205.447Y-171.752
X205.447Y-172.387
X205.447Y-173.022
X205.447Y-173.657
X205.447Y-174.292
X205.46Y-55.923
X205.46Y-133.423
X205.523Y-53.637
X205.523Y-131.137
X205.777Y-54.247
X205.777Y-131.747
X206.082Y-78.123
X206.082Y-78.758
X206.082Y-79.393
X206.082Y-80.028
X206.082Y-80.663
X206.082Y-81.933
X206.082Y-82.568
X206.082Y-83.203
X206.082Y-83.838
X206.082Y-84.473
X206.082Y-86.251
X206.082Y-86.886
X206.082Y-87.521
X206.082Y-88.156
X206.082Y-88.791
X206.082Y-90.188
X206.082Y-90.823
X206.082Y-91.458
X206.082Y-92.093
X206.082Y-92.728
X206.082Y-94.252
X206.082Y-94.887
X206.082Y-95.522
X206.082Y-96.157
X206.082Y-96.792
X206.082Y-155.623
X206.082Y-156.258
X206.082Y-156.893
X206.082Y-157.528
X206.082Y-158.163
X206.082Y-159.433
X206.082Y-160.068
X206.082Y-160.703
X206.082Y-161.338
X206.082Y-161.973
X206.082Y-163.751
X206.082Y-164.386
X206.082Y-165.021
X206.082Y-165.656
X206.082Y-166.291
X206.082Y-167.688
X206.082Y-168.323
X206.082Y-168.958
X206.082Y-169.593
X206.082Y-170.228
X206.082Y-171.752
X206.082Y-172.387
X206.082Y-173.022
X206.082Y-173.657
X206.082Y-174.292
X206.209Y-76.98
X206.209Y-154.48
X206.336Y-48.253
X206.336Y-125.753
X206.717Y-72.218
X206.717Y-149.718
X207.098Y-48.202
X207.098Y-125.702
X207.149Y-43.833
X207.149Y-121.333
X207.403Y-41.268
X207.403Y-118.768
X207.987Y-43.808
X207.987Y-121.308
X208.52Y-48.303
X208.52Y-125.803
X209.181Y-48.303
X209.181Y-125.803
X209.46Y-39.235
X209.46Y-116.736
X210.273Y-59.454
X210.273Y-62.502
X210.273Y-65.55
X210.273Y-68.598
X210.273Y-71.036
X210.273Y-136.954
X210.273Y-140.002
X210.273Y-143.05
X210.273Y-146.098
X210.273Y-148.536
X210.451Y-48.1
X210.451Y-125.6
X210.946Y-43.668
X210.946Y-121.168
X211.01Y-57.142
X211.01Y-134.642
X211.035Y-45.179
X211.035Y-122.679
X211.111Y-48.202
X211.111Y-125.702
X211.619Y-55.466
X211.619Y-132.966
X212.026Y-39.998
X212.026Y-117.498
X212.14Y-98.405
X212.14Y-175.905
X212.584Y-48.303
X212.584Y-125.803
X212.584Y-55.619
X212.584Y-58.666
X212.584Y-133.119
X212.584Y-136.166
X213.245Y-48.303
X213.245Y-125.803
X213.27Y-60.978
X213.27Y-138.478
X213.321Y-64.026
X213.321Y-70.122
X213.321Y-141.526
X213.321Y-147.622
X213.372Y-67.074
X213.372Y-144.574
X213.473Y-45.967
X213.473Y-123.467
X213.499Y-45.179
X213.499Y-122.679
X213.55Y-43.528
X213.55Y-121.028
X214.261Y-53.485
X214.261Y-130.985
X214.388Y-43.681
X214.388Y-121.181
X214.667Y-45.306
X214.667Y-122.806
X214.82Y-48.303
X214.82Y-125.803
X215.531Y-48.354
X215.531Y-125.854
X215.577Y-40.546
X215.577Y-118.046
X215.734Y-51.555
X215.734Y-129.055
X215.95Y-98.43
X215.95Y-175.93
X216.064Y-46.348
X216.064Y-123.848
X216.496Y-43.579
X216.496Y-121.079
X216.547Y-57.93
X216.547Y-64.026
X216.547Y-135.43
X216.547Y-141.526
X216.557Y-65.657
X216.557Y-143.157
X216.623Y-60.978
X216.623Y-138.478
X216.75Y-50.539
X216.75Y-128.039
X216.801Y-48.303
X216.801Y-125.803
X216.902Y-55.466
X216.902Y-132.966
X216.953Y-70.122
X216.953Y-147.622
X217.207Y-43.706
X217.207Y-121.206
X217.512Y-72.941
X217.512Y-150.441
X217.868Y-50.97
X217.868Y-128.47
X218.071Y-73.5
X218.071Y-151.0
X218.249Y-45.23
X218.249Y-122.73
X218.264Y-42.065
X218.264Y-119.565
X218.299Y-49.942
X218.299Y-127.442
X218.884Y-42.365
X218.884Y-119.865
X219.366Y-49.904
X219.366Y-127.404
X219.392Y-73.83
X219.392Y-151.33
X219.493Y-73.17
X219.493Y-150.67
X219.9Y-49.065
X219.9Y-126.565
X220.128Y-47.567
X220.128Y-125.067
X220.306Y-43.884
X220.306Y-121.384
X220.458Y-50.081
X220.458Y-127.581
X220.946Y-43.33
X220.946Y-120.83
X221.165Y-45.225
X221.165Y-122.725
X221.271Y-55.06
X221.271Y-132.56
X221.83Y-49.777
X221.83Y-127.277
X221.932Y-45.408
X221.932Y-122.908
X222.033Y-53.129
X222.033Y-130.629
X222.452Y-60.394
X222.452Y-137.894
X222.795Y-43.782
X222.795Y-121.282
X223.405Y-51.402
X223.405Y-128.902
X223.76Y-45.662
X223.76Y-123.162
X224.202Y-47.242
X224.202Y-124.742
X224.573Y-54.095
X224.573Y-131.595
X224.726Y-56.99
X224.726Y-134.49
X225.122Y-94.145
X225.122Y-171.645
X225.335Y-43.833
X225.335Y-121.333
X225.691Y-53.688
X225.691Y-131.188
X226.158Y-45.169
X226.158Y-122.669
X226.824Y-60.358
X226.824Y-137.858
X227.901Y-49.355
X227.901Y-126.855
X228.739Y-60.089
X228.739Y-137.589
T2
X162.257Y-62.752
X162.257Y-63.899
X162.257Y-65.046
X163.358Y-62.752
X163.358Y-63.899
X163.358Y-65.046
X102.257Y-140.251
X102.257Y-141.399
X102.257Y-142.546
X103.358Y-140.251
X103.358Y-141.399
X103.358Y-142.546
X222.257Y-140.251
X222.257Y-141.399
X222.257Y-142.546
X223.358Y-140.251
X223.358Y-141.399
X223.358Y-142.546
X102.257Y-62.752
X102.257Y-63.899
X102.257Y-65.046
X103.358Y-62.752
X103.358Y-63.899
X103.358Y-65.046
X162.257Y-140.251
X162.257Y-141.399
X162.257Y-142.546
X163.358Y-140.251
X163.358Y-141.399
X163.358Y-142.546
X222.257Y-62.752
X222.257Y-63.899
X222.257Y-65.046
X223.358Y-62.752
X223.358Y-63.899
X223.358Y-65.046
T3
X99.595Y-62.654
X99.595Y-140.154
X101.385Y-68.662
X101.385Y-146.161
X107.459Y-69.624
X107.459Y-147.124
X107.794Y-68.482
X107.794Y-145.982
X108.155Y-69.096
X108.155Y-146.596
X108.282Y-63.467
X108.282Y-140.967
X108.464Y-69.695
X108.464Y-147.195
X108.52Y-68.395
X108.52Y-145.895
X108.551Y-67.262
X108.551Y-144.762
X108.576Y-64.183
X108.576Y-141.683
X108.586Y-64.92
X108.586Y-142.42
X108.591Y-65.647
X108.591Y-66.464
X108.591Y-143.147
X108.591Y-143.964
X109.089Y-69.147
X109.089Y-146.647
X109.099Y-67.618
X109.099Y-145.118
X109.13Y-64.488
X109.13Y-68.43
X109.13Y-141.988
X109.13Y-145.93
X109.135Y-63.706
X109.135Y-66.104
X109.135Y-66.85
X109.135Y-141.206
X109.135Y-143.604
X109.135Y-144.35
X109.145Y-65.276
X109.145Y-142.776
X109.15Y-62.106
X109.15Y-139.606
X109.206Y-62.908
X109.206Y-140.408
X159.595Y-62.654
X159.595Y-140.154
X161.385Y-68.662
X161.385Y-146.161
X167.459Y-69.624
X167.459Y-147.124
X167.794Y-68.482
X167.794Y-145.982
X168.155Y-69.096
X168.155Y-146.596
X168.282Y-63.467
X168.282Y-140.967
X168.464Y-69.695
X168.464Y-147.195
X168.52Y-68.395
X168.52Y-145.895
X168.551Y-67.262
X168.551Y-144.762
X168.576Y-64.183
X168.576Y-141.683
X168.586Y-64.92
X168.586Y-142.42
X168.591Y-65.647
X168.591Y-66.464
X168.591Y-143.147
X168.591Y-143.964
X169.089Y-69.147
X169.089Y-146.647
X169.099Y-67.618
X169.099Y-145.118
X169.13Y-64.488
X169.13Y-68.43
X169.13Y-141.988
X169.13Y-145.93
X169.135Y-63.706
X169.135Y-66.104
X169.135Y-66.85
X169.135Y-141.206
X169.135Y-143.604
X169.135Y-144.35
X169.145Y-65.276
X169.145Y-142.776
X169.15Y-62.106
X169.15Y-139.606
X169.206Y-62.908
X169.206Y-140.408
X219.595Y-62.654
X219.595Y-140.154
X221.385Y-68.662
X221.385Y-146.161
X227.459Y-69.624
X227.459Y-147.124
X227.794Y-68.482
X227.794Y-145.982
X228.155Y-69.096
X228.155Y-146.596
X228.282Y-63.467
X228.282Y-140.967
X228.464Y-69.695
X228.464Y-147.195
X228.52Y-68.395
X228.52Y-145.895
X228.551Y-67.262
X228.551Y-144.762
X228.576Y-64.183
X228.576Y-141.683
X228.586Y-64.92
X228.586Y-142.42
X228.591Y-65.647
X228.591Y-66.464
X228.591Y-143.147
X228.591Y-143.964
X229.089Y-69.147
X229.089Y-146.647
X229.099Y-67.618
X229.099Y-145.118
X229.13Y-64.488
X229.13Y-68.43
X229.13Y-141.988
X229.13Y-145.93
X229.135Y-63.706
X229.135Y-66.104
X229.135Y-66.85
X229.135Y-141.206
X229.135Y-143.604
X229.135Y-144.35
X229.145Y-65.276
X229.145Y-142.776
X229.15Y-62.106
X229.15Y-139.606
X229.206Y-62.908
X229.206Y-140.408
T4
X71.21Y-68.115
X71.21Y-145.615
X79.656Y-68.052
X79.656Y-145.552
X86.641Y-73.449
X86.641Y-150.949
X88.787Y-98.354
X88.787Y-175.854
X89.13Y-77.488
X89.13Y-81.552
X89.13Y-85.616
X89.13Y-89.68
X89.13Y-93.744
X89.13Y-154.988
X89.13Y-159.052
X89.13Y-163.116
X89.13Y-167.18
X89.13Y-171.244
X94.972Y-75.583
X94.972Y-79.647
X94.972Y-83.711
X94.972Y-87.775
X94.972Y-91.839
X94.972Y-95.903
X94.972Y-153.083
X94.972Y-157.147
X94.972Y-161.211
X94.972Y-165.275
X94.972Y-169.339
X94.972Y-173.403
X97.131Y-68.928
X97.131Y-146.428
X108.129Y-51.148
X108.129Y-52.723
X108.129Y-128.648
X108.129Y-130.223
X131.21Y-68.115
X131.21Y-145.615
X139.656Y-68.052
X139.656Y-145.552
X146.641Y-73.449
X146.641Y-150.949
X148.787Y-98.354
X148.787Y-175.854
X149.13Y-77.488
X149.13Y-81.552
X149.13Y-85.616
X149.13Y-89.68
X149.13Y-93.744
X149.13Y-154.988
X149.13Y-159.052
X149.13Y-163.116
X149.13Y-167.18
X149.13Y-171.244
X154.972Y-75.583
X154.972Y-79.647
X154.972Y-83.711
X154.972Y-87.775
X154.972Y-91.839
X154.972Y-95.903
X154.972Y-153.083
X154.972Y-157.147
X154.972Y-161.211
X154.972Y-165.275
X154.972Y-169.339
X154.972Y-173.403
X157.131Y-68.928
X157.131Y-146.428
X168.129Y-51.148
X168.129Y-52.723
X168.129Y-128.648
X168.129Y-130.223
X191.21Y-68.115
X191.21Y-145.615
X199.656Y-68.052
X199.656Y-145.552
X206.641Y-73.449
X206.641Y-150.949
X208.787Y-98.354
X208.787Y-175.854
X209.13Y-77.488
X209.13Y-81.552
X209.13Y-85.616
X209.13Y-89.68
X209.13Y-93.744
X209.13Y-154.988
X209.13Y-159.052
X209.13Y-163.116
X209.13Y-167.18
X209.13Y-171.244
X214.972Y-75.583
X214.972Y-79.647
X214.972Y-83.711
X214.972Y-87.775
X214.972Y-91.839
X214.972Y-95.903
X214.972Y-153.083
X214.972Y-157.147
X214.972Y-161.211
X214.972Y-165.275
X214.972Y-169.339
X214.972Y-173.403
X217.131Y-68.928
X217.131Y-146.428
X228.129Y-51.148
X228.129Y-52.723
X228.129Y-128.648
X228.129Y-130.223
T5
X171.762Y-171.903
X172.465Y-170.206
X172.465Y-173.6
X174.162Y-169.503
X174.162Y-174.303
X175.859Y-170.206
X175.859Y-173.6
X176.562Y-171.903
X186.762Y-109.403
X187.465Y-107.706
X187.465Y-111.1
X189.162Y-107.003
X189.162Y-111.803
X190.859Y-107.706
X190.859Y-111.1
X191.562Y-109.403
X111.762Y-171.903
X112.465Y-170.206
X112.465Y-173.6
X114.162Y-169.503
X114.162Y-174.303
X115.859Y-170.206
X115.859Y-173.6
X116.562Y-171.903
X126.762Y-109.403
X127.465Y-107.706
X127.465Y-111.1
X129.162Y-107.003
X129.162Y-111.803
X130.859Y-107.706
X130.859Y-111.1
X131.562Y-109.403
X171.762Y-109.403
X172.465Y-107.706
X172.465Y-111.1
X174.162Y-107.003
X174.162Y-111.803
X175.859Y-107.706
X175.859Y-111.1
X176.562Y-109.403
X66.762Y-109.403
X67.465Y-107.706
X67.465Y-111.1
X69.162Y-107.003
X69.162Y-111.803
X70.859Y-107.706
X70.859Y-111.1
X71.562Y-109.403
X126.762Y-31.903
X127.465Y-30.206
X127.465Y-33.6
X129.162Y-29.503
X129.162Y-34.303
X130.859Y-30.206
X130.859Y-33.6
X131.562Y-31.903
X186.762Y-171.903
X187.465Y-170.206
X187.465Y-173.6
X189.162Y-169.503
X189.162Y-174.303
X190.859Y-170.206
X190.859Y-173.6
X191.562Y-171.903
X231.762Y-31.903
X232.465Y-30.206
X232.465Y-33.6
X234.162Y-29.503
X234.162Y-34.303
X235.859Y-30.206
X235.859Y-33.6
X236.562Y-31.903
X171.762Y-94.403
X172.465Y-92.706
X172.465Y-96.1
X174.162Y-92.003
X174.162Y-96.803
X175.859Y-92.706
X175.859Y-96.1
X176.562Y-94.403
X111.762Y-94.403
X112.465Y-92.706
X112.465Y-96.1
X114.162Y-92.003
X114.162Y-96.803
X115.859Y-92.706
X115.859Y-96.1
X116.562Y-94.403
X186.762Y-31.903
X187.465Y-30.206
X187.465Y-33.6
X189.162Y-29.503
X189.162Y-34.303
X190.859Y-30.206
X190.859Y-33.6
X191.562Y-31.903
X66.762Y-171.903
X67.465Y-170.206
X67.465Y-173.6
X69.162Y-169.503
X69.162Y-174.303
X70.859Y-170.206
X70.859Y-173.6
X71.562Y-171.903
X66.762Y-31.903
X67.465Y-30.206
X67.465Y-33.6
X69.162Y-29.503
X69.162Y-34.303
X70.859Y-30.206
X70.859Y-33.6
X71.562Y-31.903
X66.762Y-94.403
X67.465Y-92.706
X67.465Y-96.1
X69.162Y-92.003
X69.162Y-96.803
X70.859Y-92.706
X70.859Y-96.1
X71.562Y-94.403
X126.762Y-94.403
X127.465Y-92.706
X127.465Y-96.1
X129.162Y-92.003
X129.162Y-96.803
X130.859Y-92.706
X130.859Y-96.1
X131.562Y-94.403
X186.762Y-94.403
X187.465Y-92.706
X187.465Y-96.1
X189.162Y-92.003
X189.162Y-96.803
X190.859Y-92.706
X190.859Y-96.1
X191.562Y-94.403
X111.762Y-109.403
X112.465Y-107.706
X112.465Y-111.1
X114.162Y-107.003
X114.162Y-111.803
X115.859Y-107.706
X115.859Y-111.1
X116.562Y-109.403
X231.762Y-171.903
X232.465Y-170.206
X232.465Y-173.6
X234.162Y-169.503
X234.162Y-174.303
X235.859Y-170.206
X235.859Y-173.6
X236.562Y-171.903
X231.762Y-109.403
X232.465Y-107.706
X232.465Y-111.1
X234.162Y-107.003
X234.162Y-111.803
X235.859Y-107.706
X235.859Y-111.1
X236.562Y-109.403
X171.762Y-31.903
X172.465Y-30.206
X172.465Y-33.6
X174.162Y-29.503
X174.162Y-34.303
X175.859Y-30.206
X175.859Y-33.6
X176.562Y-31.903
X111.762Y-31.903
X112.465Y-30.206
X112.465Y-33.6
X114.162Y-29.503
X114.162Y-34.303
X115.859Y-30.206
X115.859Y-33.6
X116.562Y-31.903
X126.762Y-171.903
X127.465Y-170.206
X127.465Y-173.6
X129.162Y-169.503
X129.162Y-174.303
X130.859Y-170.206
X130.859Y-173.6
X131.562Y-171.903
X231.762Y-94.403
X232.465Y-92.706
X232.465Y-96.1
X234.162Y-92.003
X234.162Y-96.803
X235.859Y-92.706
X235.859Y-96.1
X236.562Y-94.403
T6
X68.248Y-121.79
X68.248Y-124.79
X68.248Y-127.79
X68.248Y-130.79
X68.248Y-133.79
X68.248Y-136.79
X71.248Y-121.79
X71.248Y-124.79
X71.248Y-127.79
X71.248Y-130.79
X71.248Y-133.79
X71.248Y-136.79
X128.248Y-44.29
X128.248Y-47.29
X128.248Y-50.29
X128.248Y-53.29
X128.248Y-56.29
X128.248Y-59.29
X131.248Y-44.29
X131.248Y-47.29
X131.248Y-50.29
X131.248Y-53.29
X131.248Y-56.29
X131.248Y-59.29
X232.19Y-121.731
X232.19Y-124.731
X232.19Y-127.731
X232.19Y-130.731
X232.19Y-133.731
X232.19Y-136.731
X235.19Y-121.731
X235.19Y-124.731
X235.19Y-127.731
X235.19Y-130.731
X235.19Y-133.731
X235.19Y-136.731
X188.248Y-44.29
X188.248Y-47.29
X188.248Y-50.29
X188.248Y-53.29
X188.248Y-56.29
X188.248Y-59.29
X191.248Y-44.29
X191.248Y-47.29
X191.248Y-50.29
X191.248Y-53.29
X191.248Y-56.29
X191.248Y-59.29
X112.19Y-121.731
X112.19Y-124.731
X112.19Y-127.731
X112.19Y-130.731
X112.19Y-133.731
X112.19Y-136.731
X115.19Y-121.731
X115.19Y-124.731
X115.19Y-127.731
X115.19Y-130.731
X115.19Y-133.731
X115.19Y-136.731
X232.19Y-44.231
X232.19Y-47.231
X232.19Y-50.231
X232.19Y-53.231
X232.19Y-56.231
X232.19Y-59.231
X235.19Y-44.231
X235.19Y-47.231
X235.19Y-50.231
X235.19Y-53.231
X235.19Y-56.231
X235.19Y-59.231
X112.19Y-44.231
X112.19Y-47.231
X112.19Y-50.231
X112.19Y-53.231
X112.19Y-56.231
X112.19Y-59.231
X115.19Y-44.231
X115.19Y-47.231
X115.19Y-50.231
X115.19Y-53.231
X115.19Y-56.231
X115.19Y-59.231
X188.248Y-121.79
X188.248Y-124.79
X188.248Y-127.79
X188.248Y-130.79
X188.248Y-133.79
X188.248Y-136.79
X191.248Y-121.79
X191.248Y-124.79
X191.248Y-127.79
X191.248Y-130.79
X191.248Y-133.79
X191.248Y-136.79
X128.248Y-121.79
X128.248Y-124.79
X128.248Y-127.79
X128.248Y-130.79
X128.248Y-133.79
X128.248Y-136.79
X131.248Y-121.79
X131.248Y-124.79
X131.248Y-127.79
X131.248Y-130.79
X131.248Y-133.79
X131.248Y-136.79
X172.19Y-121.731
X172.19Y-124.731
X172.19Y-127.731
X172.19Y-130.731
X172.19Y-133.731
X172.19Y-136.731
X175.19Y-121.731
X175.19Y-124.731
X175.19Y-127.731
X175.19Y-130.731
X175.19Y-133.731
X175.19Y-136.731
X172.19Y-44.231
X172.19Y-47.231
X172.19Y-50.231
X172.19Y-53.231
X172.19Y-56.231
X172.19Y-59.231
X175.19Y-44.231
X175.19Y-47.231
X175.19Y-50.231
X175.19Y-53.231
X175.19Y-56.231
X175.19Y-59.231
X68.248Y-44.29
X68.248Y-47.29
X68.248Y-50.29
X68.248Y-53.29
X68.248Y-56.29
X68.248Y-59.29
X71.248Y-44.29
X71.248Y-47.29
X71.248Y-50.29
X71.248Y-53.29
X71.248Y-56.29
X71.248Y-59.29
T7
X128.238Y-145.018
X128.238Y-148.018
X128.238Y-151.018
X128.238Y-154.018
X128.238Y-157.018
X128.238Y-160.018
X128.238Y-163.018
X100.633Y-30.879
X103.633Y-30.879
X220.633Y-30.879
X223.633Y-30.879
X220.633Y-108.379
X223.633Y-108.379
X199.932Y-30.981
X202.932Y-30.981
X160.633Y-108.379
X163.633Y-108.379
X175.114Y-145.014
X175.114Y-148.014
X175.114Y-151.014
X175.114Y-154.014
X175.114Y-157.014
X175.114Y-160.014
X175.114Y-163.014
X115.114Y-67.514
X115.114Y-70.514
X115.114Y-73.514
X115.114Y-76.514
X115.114Y-79.514
X115.114Y-82.514
X115.114Y-85.514
X128.238Y-67.519
X128.238Y-70.519
X128.238Y-73.519
X128.238Y-76.519
X128.238Y-79.519
X128.238Y-82.519
X128.238Y-85.519
X175.114Y-67.514
X175.114Y-70.514
X175.114Y-73.514
X175.114Y-76.514
X175.114Y-79.514
X175.114Y-82.514
X175.114Y-85.514
X188.238Y-145.018
X188.238Y-148.018
X188.238Y-151.018
X188.238Y-154.018
X188.238Y-157.018
X188.238Y-160.018
X188.238Y-163.018
X199.932Y-108.481
X202.932Y-108.481
X188.238Y-67.519
X188.238Y-70.519
X188.238Y-73.519
X188.238Y-76.519
X188.238Y-79.519
X188.238Y-82.519
X188.238Y-85.519
X139.932Y-30.981
X142.932Y-30.981
X100.633Y-108.379
X103.633Y-108.379
X160.633Y-30.879
X163.633Y-30.879
X235.114Y-145.014
X235.114Y-148.014
X235.114Y-151.014
X235.114Y-154.014
X235.114Y-157.014
X235.114Y-160.014
X235.114Y-163.014
X79.932Y-30.981
X82.932Y-30.981
X235.114Y-67.514
X235.114Y-70.514
X235.114Y-73.514
X235.114Y-76.514
X235.114Y-79.514
X235.114Y-82.514
X235.114Y-85.514
X68.239Y-67.519
X68.239Y-70.519
X68.239Y-73.519
X68.239Y-76.519
X68.239Y-79.519
X68.239Y-82.519
X68.239Y-85.519
X115.114Y-145.014
X115.114Y-148.014
X115.114Y-151.014
X115.114Y-154.014
X115.114Y-157.014
X115.114Y-160.014
X115.114Y-163.014
X68.239Y-145.018
X68.239Y-148.018
X68.239Y-151.018
X68.239Y-154.018
X68.239Y-157.018
X68.239Y-160.018
X68.239Y-163.018
X79.932Y-108.481
X82.932Y-108.481
X139.932Y-108.481
X142.932Y-108.481
T8
X114.162Y-31.903
X129.162Y-171.903
X234.162Y-94.403
X174.162Y-171.903
X189.162Y-109.403
X114.162Y-171.903
X129.162Y-109.403
X174.162Y-109.403
X69.162Y-109.403
X129.162Y-31.903
X189.162Y-171.903
X234.162Y-31.903
X174.162Y-94.403
X114.162Y-94.403
X189.162Y-31.903
X69.162Y-171.903
X69.162Y-31.903
X69.162Y-94.403
X129.162Y-94.403
X189.162Y-94.403
X114.162Y-109.403
X234.162Y-171.903
X234.162Y-109.403
X174.162Y-31.903
T9
X67.308Y-41.29
X67.308Y-62.29
X67.308Y-118.79
X67.308Y-139.79
X127.308Y-41.29
X127.308Y-62.29
X236.13Y-118.731
X236.13Y-139.731
X187.308Y-41.29
X187.308Y-62.29
X116.13Y-118.731
X116.13Y-139.731
X236.13Y-41.231
X236.13Y-62.231
X116.13Y-41.231
X116.13Y-62.231
X187.308Y-118.79
X187.308Y-139.79
X127.308Y-118.79
X127.308Y-139.79
X176.13Y-118.731
X176.13Y-139.731
X176.13Y-41.231
X176.13Y-62.231
T10
X130.198Y-142.018
X130.198Y-166.018
X97.633Y-32.839
X106.633Y-32.839
X217.633Y-32.839
X226.633Y-32.839
X217.633Y-110.339
X226.633Y-110.339
X196.932Y-32.941
X205.932Y-32.941
X157.633Y-110.339
X166.633Y-110.339
X173.154Y-142.014
X173.154Y-166.014
X113.154Y-64.514
X113.154Y-88.514
X130.198Y-64.519
X130.198Y-88.519
X173.154Y-64.514
X173.154Y-88.514
X190.198Y-142.018
X190.198Y-166.018
X196.932Y-110.441
X205.932Y-110.441
X190.198Y-64.519
X190.198Y-88.519
X136.932Y-32.941
X145.932Y-32.941
X97.633Y-110.339
X106.633Y-110.339
X157.633Y-32.839
X166.633Y-32.839
X233.154Y-142.014
X233.154Y-166.014
X76.932Y-32.941
X85.932Y-32.941
X233.154Y-64.514
X233.154Y-88.514
X70.198Y-64.519
X70.198Y-88.519
X113.154Y-142.014
X113.154Y-166.014
X70.198Y-142.018
X70.198Y-166.018
X76.932Y-110.441
X85.932Y-110.441
X136.932Y-110.441
X145.932Y-110.441
T11
X241.986Y-53.454
X161.659Y-102.222
X151.689Y-179.692
X151.562Y-24.117
X91.681Y-179.692
X81.204Y-102.096
X221.539Y-102.096
X61.328Y-53.01
X211.252Y-179.565
X91.872Y-24.308
X241.795Y-150.8
X61.582Y-151.244
X211.569Y-24.117
T0
M30
